<?xml version="1.0" standalone="no"?>
<!DOCTYPE svg PUBLIC "-//W3C//DTD SVG 20010904//EN"
 "http://www.w3.org/TR/2001/REC-SVG-20010904/DTD/svg10.dtd">
<svg version="1.0" xmlns="http://www.w3.org/2000/svg"
 width="600.000000pt" height="400.000000pt" viewBox="0 0 600.000000 400.000000"
 preserveAspectRatio="xMidYMid meet">

<g transform="translate(0.000000,400.000000) scale(0.100000,-0.100000)"
fill="#000000" stroke="none">
<path d="M2749 3243 c-13 -17 -13 -17 6 -3 11 8 22 16 24 17 2 2 0 3 -6 3 -6
0 -17 -8 -24 -17z"/>
<path d="M2790 3256 c0 -2 7 -7 16 -10 8 -3 12 -2 9 4 -6 10 -25 14 -25 6z"/>
<path d="M2545 3230 c-3 -6 1 -7 9 -4 18 7 21 14 7 14 -6 0 -13 -4 -16 -10z"/>
<path d="M2590 3236 c0 -2 7 -7 16 -10 8 -3 12 -2 9 4 -6 10 -25 14 -25 6z"/>
<path d="M2820 3210 c0 -10 -8 -24 -17 -29 -15 -9 -15 -10 -3 -11 9 0 33 -17
53 -38 l37 -38 0 -150 0 -150 70 -69 c60 -60 70 -74 70 -105 0 -25 6 -39 21
-48 29 -18 23 -66 -9 -70 -13 -2 -31 2 -40 10 -15 12 -16 11 -3 -4 16 -21 51
-24 69 -6 17 17 15 53 -3 68 -9 8 -15 29 -15 56 0 40 -4 46 -70 106 l-70 63 0
150 0 151 -43 43 c-34 33 -43 48 -39 67 2 13 2 24 -2 24 -3 0 -6 -9 -6 -20z"/>
<path d="M3385 3210 c-3 -6 1 -7 9 -4 18 7 21 14 7 14 -6 0 -13 -4 -16 -10z"/>
<path d="M3430 3216 c0 -2 7 -7 16 -10 8 -3 12 -2 9 4 -6 10 -25 14 -25 6z"/>
<path d="M2395 3193 c11 -3 27 -10 35 -17 13 -10 13 -9 1 7 -7 9 -23 16 -35
16 -20 -1 -20 -2 -1 -6z"/>
<path d="M2740 3196 c0 -2 8 -10 18 -17 15 -13 16 -12 3 4 -13 16 -21 21 -21
13z"/>
<path d="M3457 3171 c-4 -17 -3 -21 5 -13 5 5 8 16 6 23 -3 8 -7 3 -11 -10z"/>
<path d="M2610 3168 c0 -4 -12 -8 -27 -9 -26 -1 -26 -2 6 -9 21 -5 56 -31 97
-71 l64 -63 0 -161 0 -161 28 -27 c41 -39 63 -34 24 6 l-32 33 0 160 0 161
-80 74 c-44 41 -80 71 -80 67z"/>
<path d="M2351 3154 c0 -11 3 -14 6 -6 3 7 2 16 -1 19 -3 4 -6 -2 -5 -13z"/>
<path d="M3062 3148 c-7 -7 -11 -21 -11 -32 1 -21 1 -21 6 -1 3 11 10 26 15
33 13 15 6 16 -10 0z"/>
<path d="M3126 3147 c3 -10 9 -15 12 -12 3 3 0 11 -7 18 -10 9 -11 8 -5 -6z"/>
<path d="M3250 2987 l0 -173 70 -69 c67 -67 70 -71 70 -117 0 -27 5 -48 10
-48 6 0 10 24 10 54 l0 54 -70 63 -70 62 0 173 c0 109 -4 174 -10 174 -6 0
-10 -64 -10 -173z"/>
<path d="M3393 3144 c14 -17 17 -44 17 -175 l0 -155 60 -59 60 -59 0 -176 c0
-172 -1 -177 -23 -198 -13 -12 -35 -22 -50 -22 -14 0 -28 -4 -31 -8 -3 -5 8
-7 23 -4 16 2 32 -1 35 -7 4 -6 19 3 36 23 l30 34 0 184 0 184 -60 59 -61 60
3 158 c3 136 1 157 -12 157 -9 0 -22 6 -30 13 -8 6 -7 3 3 -9z"/>
<path d="M2158 3123 c7 -3 16 -2 19 1 4 3 -2 6 -13 5 -11 0 -14 -3 -6 -6z"/>
<path d="M2373 3117 c15 -13 17 -39 17 -277 l0 -264 75 -77 c41 -42 78 -73 81
-68 3 5 15 10 27 10 19 1 18 2 -5 8 -14 3 -56 35 -93 70 l-66 63 3 268 c2 148
0 266 -4 264 -4 -3 -18 0 -30 6 -21 10 -21 10 -5 -3z"/>
<path d="M3596 3100 c7 -8 14 -24 17 -35 4 -19 5 -19 6 1 0 12 -7 28 -16 35
-16 12 -17 12 -7 -1z"/>
<path d="M2121 3084 c0 -12 7 -28 17 -35 15 -12 16 -12 6 1 -7 8 -14 24 -17
35 -4 19 -5 19 -6 -1z"/>
<path d="M3079 3077 c7 -7 11 -60 11 -153 l0 -142 55 -47 c33 -28 52 -51 48
-58 -4 -7 0 -6 10 1 15 13 11 19 -38 64 l-55 50 0 143 c0 137 -1 143 -21 148
-17 4 -19 3 -10 -6z"/>
<path d="M3825 3083 c11 -3 27 -10 35 -17 13 -10 13 -9 1 7 -7 9 -23 16 -35
16 -20 -1 -20 -2 -1 -6z"/>
<path d="M2194 3056 c-8 -8 -4 -16 13 -29 24 -19 24 -22 21 -167 -2 -115 0
-146 10 -143 9 4 12 43 12 150 0 136 -1 147 -23 172 -16 19 -26 24 -33 17z"/>
<path d="M3781 3044 c0 -11 3 -14 6 -6 3 7 2 16 -1 19 -3 4 -6 -2 -5 -13z"/>
<path d="M3543 3034 c14 -17 17 -41 17 -130 l0 -110 45 -44 45 -44 0 -165 c0
-141 -2 -167 -17 -185 -10 -12 -11 -15 -3 -8 8 6 21 12 30 12 13 0 15 22 12
172 l-3 173 -45 46 -45 46 3 117 c3 99 1 116 -12 116 -9 0 -22 6 -30 13 -8 6
-7 3 3 -9z"/>
<path d="M2592 3018 c-7 -7 -12 -22 -12 -33 0 -12 -9 -30 -20 -40 -18 -16 -20
-31 -20 -155 l0 -136 34 -33 c19 -18 39 -30 45 -27 6 4 -3 19 -24 38 l-35 30
0 127 c0 111 2 130 18 144 10 10 23 14 27 10 5 -5 4 0 -4 9 -7 9 -11 27 -9 40
4 27 40 36 66 16 15 -12 16 -11 3 5 -16 20 -51 23 -69 5z"/>
<path d="M3749 2974 c-24 -24 -49 -44 -56 -44 -11 0 -11 -3 -2 -13 10 -10 20
-4 53 31 22 25 49 48 60 52 16 5 17 8 4 13 -10 3 -31 -11 -59 -39z"/>
<path d="M2649 2953 c-13 -16 -12 -17 4 -4 16 13 21 21 13 21 -2 0 -10 -8 -17
-17z"/>
<path d="M3898 2963 c7 -3 16 -2 19 1 4 3 -2 6 -13 5 -11 0 -14 -3 -6 -6z"/>
<path d="M1799 2923 c-13 -16 -12 -17 4 -4 9 7 17 15 17 17 0 8 -8 3 -21 -13z"/>
<path d="M1858 2928 c8 -9 12 -27 10 -40 -4 -30 -46 -38 -65 -12 -7 10 -13 13
-13 8 0 -35 63 -46 82 -14 11 17 24 20 84 20 69 0 73 -1 101 -33 24 -27 32
-31 46 -23 12 8 23 7 39 -3 21 -13 22 -13 9 2 -7 10 -23 17 -35 17 -12 0 -35
14 -51 30 -27 28 -33 30 -104 30 -56 0 -79 4 -95 18 -18 15 -19 15 -8 0z"/>
<path d="M4116 2930 c7 -8 14 -24 17 -35 4 -19 5 -19 6 1 0 12 -7 28 -16 35
-16 12 -17 12 -7 -1z"/>
<path d="M3818 2854 l-48 -51 0 -133 c0 -113 -3 -137 -17 -154 -18 -20 -18
-20 9 0 27 19 27 19 28 150 l0 131 48 45 c31 29 44 48 37 54 -6 6 -27 -9 -57
-42z"/>
<path d="M3621 2884 c0 -11 3 -14 6 -6 3 7 2 16 -1 19 -3 4 -6 -2 -5 -13z"/>
<path d="M4053 2879 c3 -11 -18 -37 -69 -83 l-74 -67 0 -178 0 -178 -62 -54
c-34 -30 -73 -57 -87 -60 -23 -6 -24 -7 -4 -8 12 0 24 -5 27 -10 3 -4 37 23
76 62 l70 70 0 171 0 172 68 67 c44 44 76 67 92 68 21 1 22 2 5 6 -11 3 -26
12 -34 21 -12 15 -13 15 -8 1z"/>
<path d="M1689 2753 c-12 -16 -12 -17 1 -7 8 7 24 14 35 17 19 4 19 5 -1 6
-12 0 -28 -7 -35 -16z"/>
<path d="M1757 2731 c5 -20 11 -21 107 -21 l102 0 116 -118 c94 -94 119 -115
132 -107 11 7 23 6 38 -4 21 -13 22 -13 9 2 -7 10 -23 17 -35 17 -14 0 -61 40
-136 115 l-115 115 -100 0 c-63 0 -105 4 -112 11 -9 9 -10 7 -6 -10z"/>
<path d="M4135 2739 c-11 -16 -1 -19 13 -3 7 8 8 14 3 14 -5 0 -13 -5 -16 -11z"/>
<path d="M2266 2710 c7 -8 14 -24 17 -35 4 -19 5 -19 6 1 0 12 -7 28 -16 35
-16 12 -17 12 -7 -1z"/>
<path d="M4211 2704 c0 -11 3 -14 6 -6 3 7 2 16 -1 19 -3 4 -6 -2 -5 -13z"/>
<path d="M1555 2693 c11 -3 27 -10 35 -17 13 -10 13 -9 1 7 -7 9 -23 16 -35
16 -20 -1 -20 -2 -1 -6z"/>
<path d="M1687 2689 c7 -7 15 -10 18 -7 3 3 -2 9 -12 12 -14 6 -15 5 -6 -5z"/>
<path d="M1740 2690 c-9 -6 -10 -10 -3 -10 6 0 15 5 18 10 8 12 4 12 -15 0z"/>
<path d="M3240 2696 c0 -2 7 -7 16 -10 8 -3 12 -2 9 4 -6 10 -25 14 -25 6z"/>
<path d="M4299 2683 c-12 -16 -12 -17 1 -7 8 7 24 14 35 17 19 4 19 5 -1 6
-12 0 -28 -7 -35 -16z"/>
<path d="M4093 2640 l-43 -47 0 -81 c0 -48 4 -82 10 -82 6 0 10 33 10 78 0 77
0 78 38 115 21 21 49 38 62 38 21 1 22 2 5 6 -11 3 -24 8 -30 12 -5 4 -29 -14
-52 -39z"/>
<path d="M1511 2654 c0 -11 3 -14 6 -6 3 7 2 16 -1 19 -3 4 -6 -2 -5 -13z"/>
<path d="M3271 2654 c0 -11 3 -14 6 -6 3 7 2 16 -1 19 -3 4 -6 -2 -5 -13z"/>
<path d="M4371 2654 c0 -11 3 -14 6 -6 3 7 2 16 -1 19 -3 4 -6 -2 -5 -13z"/>
<path d="M2209 2648 c7 -10 23 -17 35 -17 20 1 20 2 1 6 -11 3 -27 10 -35 17
-13 10 -13 9 -1 -6z"/>
<path d="M1581 2623 c-9 -10 -9 -13 1 -13 8 0 36 -22 63 -50 l49 -50 126 0
125 0 134 -134 134 -134 52 -4 c39 -2 51 0 48 10 -3 7 -23 12 -47 12 -40 0
-46 5 -176 135 l-135 135 -131 0 -131 0 -50 53 c-40 42 -52 50 -62 40z"/>
<path d="M3202 2624 c10 -10 20 -16 22 -13 3 3 -5 11 -17 18 -21 13 -21 12 -5
-5z"/>
<path d="M4252 2607 c-31 -31 -32 -37 -32 -113 l0 -79 -84 -84 c-75 -75 -87
-83 -115 -79 -24 3 -31 1 -31 -12 0 -9 -6 -22 -12 -30 -7 -8 -4 -7 8 3 11 9
32 17 45 17 17 0 51 26 117 93 l92 92 0 76 c0 71 2 77 30 104 30 28 38 45 22
45 -4 0 -22 -15 -40 -33z"/>
<path d="M1527 2619 c7 -7 15 -10 18 -7 3 3 -2 9 -12 12 -14 6 -15 5 -6 -5z"/>
<path d="M3250 2620 c-9 -6 -10 -10 -3 -10 6 0 15 5 18 10 8 12 4 12 -15 0z"/>
<path d="M4350 2620 c-9 -6 -10 -10 -3 -10 6 0 15 5 18 10 8 12 4 12 -15 0z"/>
<path d="M2876 2583 c-6 -14 -5 -15 5 -6 7 7 10 15 7 18 -3 3 -9 -2 -12 -12z"/>
<path d="M2999 2563 c-13 -16 -12 -17 4 -4 16 13 21 21 13 21 -2 0 -10 -8 -17
-17z"/>
<path d="M1455 2563 c11 -3 27 -10 35 -17 13 -10 13 -9 1 7 -7 9 -23 16 -35
16 -20 -1 -20 -2 -1 -6z"/>
<path d="M2838 2563 c7 -3 16 -2 19 1 4 3 -2 6 -13 5 -11 0 -14 -3 -6 -6z"/>
<path d="M1411 2524 c0 -12 7 -28 17 -35 15 -12 16 -12 6 1 -7 8 -14 24 -17
35 -4 19 -5 19 -6 -1z"/>
<path d="M4322 2528 c-17 -17 -15 -43 5 -59 15 -13 15 -12 2 9 -11 18 -11 26
-1 42 14 23 12 26 -6 8z"/>
<path d="M3808 2518 c8 -9 12 -27 10 -40 -4 -27 -40 -36 -66 -16 -15 12 -16
11 -3 -4 16 -21 51 -24 69 -6 18 18 15 53 -5 69 -16 13 -17 12 -5 -3z"/>
<path d="M1483 2495 c-9 -10 1 -25 46 -69 l57 -56 80 0 c68 0 84 -3 99 -20 10
-11 25 -20 34 -19 10 0 8 4 -7 9 -29 12 -38 37 -22 64 12 20 12 20 -7 4 -15
-14 -37 -18 -94 -18 l-75 0 -46 48 c-25 26 -47 52 -49 59 -3 8 -7 8 -16 -2z"/>
<path d="M4350 2396 l0 -64 -107 -101 -108 -101 -260 0 -261 0 -43 -44 c-24
-24 -39 -46 -34 -49 6 -4 27 12 48 33 l39 40 267 0 267 0 106 114 106 114 0
61 c0 34 -4 61 -10 61 -6 0 -10 -28 -10 -64z"/>
<path d="M2608 2415 c2 -14 -2 -33 -9 -43 -13 -15 -12 -16 4 -3 18 14 23 56 8
65 -4 3 -6 -6 -3 -19z"/>
<path d="M2197 2419 c7 -7 15 -10 18 -7 3 3 -2 9 -12 12 -14 6 -15 5 -6 -5z"/>
<path d="M2250 2420 c-9 -6 -10 -10 -3 -10 6 0 15 5 18 10 8 12 4 12 -15 0z"/>
<path d="M2801 2408 c-5 -13 -45 -124 -89 -248 -44 -124 -85 -237 -91 -252
l-11 -28 59 0 58 0 18 60 18 60 108 0 107 0 19 -57 20 -58 58 -3 c44 -2 56 0
53 10 -3 7 -47 131 -99 276 l-93 262 -63 0 c-57 0 -64 -2 -72 -22z m105 -210
c15 -46 29 -89 32 -95 3 -10 -14 -13 -66 -13 l-71 0 24 68 c31 91 44 122 49
122 2 0 17 -37 32 -82z"/>
<path d="M3200 2155 l0 -275 55 0 55 0 0 275 0 275 -55 0 -55 0 0 -275z"/>
<path d="M4022 2418 c-17 -17 -15 -43 5 -59 15 -13 15 -12 2 9 -11 18 -11 26
-1 42 14 23 12 26 -6 8z"/>
<path d="M2530 2386 c0 -2 8 -10 18 -17 15 -13 16 -12 3 4 -13 16 -21 21 -21
13z"/>
<path d="M3701 2325 c0 -12 -5 -26 -11 -33 -5 -7 -3 -6 6 2 9 7 14 22 11 32
-4 17 -5 17 -6 -1z"/>
<path d="M4509 2303 c-13 -17 -13 -17 6 -3 11 8 22 16 24 17 2 2 0 3 -6 3 -6
0 -17 -8 -24 -17z"/>
<path d="M4563 2309 c9 -5 17 -21 17 -34 0 -13 -8 -29 -17 -34 -10 -6 -13 -11
-7 -11 17 0 34 22 34 45 0 23 -17 45 -34 45 -6 0 -3 -5 7 -11z"/>
<path d="M2319 2283 c-13 -16 -12 -17 3 -4 10 7 29 11 43 9 13 -3 22 -1 19 3
-9 15 -51 10 -65 -8z"/>
<path d="M1335 2280 c-3 -6 1 -7 9 -4 18 7 21 14 7 14 -6 0 -13 -4 -16 -10z"/>
<path d="M3919 2273 c-12 -16 -12 -17 1 -7 8 7 24 14 35 17 19 4 19 5 -1 6
-12 0 -28 -7 -35 -16z"/>
<path d="M2391 2254 c0 -11 3 -14 6 -6 3 7 2 16 -1 19 -3 4 -6 -2 -5 -13z"/>
<path d="M3411 2254 c0 -12 7 -28 17 -35 15 -12 16 -12 6 1 -7 8 -14 24 -17
35 -4 19 -5 19 -6 -1z"/>
<path d="M1410 2250 c0 -6 98 -10 273 -10 l273 0 74 -75 74 -75 161 0 161 0
29 30 c18 19 39 30 56 30 14 0 33 8 40 18 13 15 12 16 -3 4 -9 -8 -27 -12 -40
-10 -30 4 -38 46 -12 65 10 7 13 13 8 13 -18 0 -34 -23 -34 -49 0 -14 -12 -38
-27 -53 l-27 -28 -151 0 -151 0 -74 75 -74 75 -278 0 c-179 0 -278 -4 -278
-10z"/>
<path d="M4376 2125 l-128 -135 -177 0 -178 0 -51 -54 c-29 -30 -48 -57 -44
-60 5 -3 31 17 57 44 l49 50 177 0 176 0 127 135 c94 99 131 132 144 128 18
-6 17 -5 -9 15 -13 10 -35 -8 -143 -123z"/>
<path d="M2530 2236 c0 -2 8 -10 18 -17 15 -13 16 -12 3 4 -13 16 -21 21 -21
13z"/>
<path d="M3479 2223 c-13 -16 -12 -17 4 -4 16 13 21 21 13 21 -2 0 -10 -8 -17
-17z"/>
<path d="M1339 2217 c7 -10 21 -17 31 -17 10 0 24 7 31 17 13 15 12 15 -8 2
-20 -12 -26 -12 -45 0 -21 13 -22 13 -9 -2z"/>
<path d="M2370 2220 c-9 -6 -10 -10 -3 -10 6 0 15 5 18 10 8 12 4 12 -15 0z"/>
<path d="M3711 2214 c0 -12 7 -28 17 -35 15 -12 16 -12 6 1 -7 8 -14 24 -17
35 -4 19 -5 19 -6 -1z"/>
<path d="M1471 2107 c-39 -41 -58 -53 -75 -50 -13 3 -28 -2 -37 -13 -13 -16
-12 -16 9 -3 17 11 26 11 41 2 16 -10 25 -4 72 43 l53 54 111 0 110 0 95 -95
95 -95 199 0 c177 0 200 -2 213 -17 13 -16 13 -16 3 5 -8 16 -8 28 0 45 10 20
10 20 -3 5 -13 -16 -36 -18 -208 -18 l-194 0 -95 95 -95 95 -120 0 -121 0 -53
-53z"/>
<path d="M4559 2103 c-12 -16 -12 -17 1 -7 8 7 24 14 35 17 19 4 19 5 -1 6
-12 0 -28 -7 -35 -16z"/>
<path d="M4631 2074 c0 -11 3 -14 6 -6 3 7 2 16 -1 19 -3 4 -6 -2 -5 -13z"/>
<path d="M3498 2053 c7 -3 16 -2 19 1 4 3 -2 6 -13 5 -11 0 -14 -3 -6 -6z"/>
<path d="M4510 2008 c-40 -41 -44 -49 -33 -64 11 -15 13 -15 13 -2 0 8 19 33
43 55 28 26 39 43 32 49 -6 6 -26 -8 -55 -38z"/>
<path d="M3461 2014 c0 -12 7 -28 17 -35 15 -12 16 -12 6 1 -7 8 -14 24 -17
35 -4 19 -5 19 -6 -1z"/>
<path d="M2421 1983 c12 -20 12 -26 0 -45 -13 -21 -13 -22 2 -9 10 7 17 21 17
31 0 10 -7 24 -17 31 -15 13 -15 12 -2 -8z"/>
<path d="M3532 1984 c-7 -8 -8 -14 -3 -14 10 0 25 19 20 25 -2 1 -10 -3 -17
-11z"/>
<path d="M3595 1989 c-4 -6 -5 -12 -2 -15 2 -3 7 2 10 11 7 17 1 20 -8 4z"/>
<path d="M3661 1983 c12 -20 12 -26 0 -45 -13 -21 -13 -22 2 -9 10 7 17 21 17
31 0 10 -7 24 -17 31 -15 13 -15 12 -2 -8z"/>
<path d="M1520 1946 c-29 -27 -42 -46 -36 -52 6 -6 24 6 49 33 39 43 40 43
111 43 l72 0 74 -75 c69 -69 78 -75 116 -75 24 0 44 5 47 13 3 9 -7 11 -37 9
-39 -3 -44 0 -116 72 l-74 76 -81 0 -80 0 -45 -44z"/>
<path d="M4410 1955 c-7 -9 -11 -17 -9 -20 3 -2 10 5 17 15 14 24 10 26 -8 5z"/>
<path d="M3620 1836 l0 -84 130 -135 130 -135 0 -310 c0 -263 -2 -311 -15
-322 -27 -22 -13 -80 19 -80 5 0 2 6 -8 13 -26 19 -18 61 12 65 13 2 29 0 36
-5 6 -4 4 -1 -6 9 -17 15 -18 41 -18 330 l0 313 -130 130 -130 130 0 82 c0 49
-4 83 -10 83 -6 0 -10 -35 -10 -84z"/>
<path d="M4400 1915 c0 -18 22 -35 45 -35 23 0 45 17 45 35 0 5 -5 2 -11 -7
-5 -10 -21 -18 -34 -18 -13 0 -29 8 -34 18 -6 9 -11 12 -11 7z"/>
<path d="M3746 1891 c-4 -5 3 -7 14 -4 23 6 26 13 6 13 -8 0 -17 -4 -20 -9z"/>
<path d="M4135 1889 c-11 -16 -1 -19 13 -3 7 8 8 14 3 14 -5 0 -13 -5 -16 -11z"/>
<path d="M1411 1864 c0 -11 3 -14 6 -6 3 7 2 16 -1 19 -3 4 -6 -2 -5 -13z"/>
<path d="M2016 1860 c7 -8 14 -24 17 -35 4 -19 5 -19 6 1 0 12 -7 28 -16 35
-16 12 -17 12 -7 -1z"/>
<path d="M2198 1863 c7 -3 16 -2 19 1 4 3 -2 6 -13 5 -11 0 -14 -3 -6 -6z"/>
<path d="M3721 1854 c0 -12 7 -28 17 -35 15 -12 16 -12 6 1 -7 8 -14 24 -17
35 -4 19 -5 19 -6 -1z"/>
<path d="M3920 1855 c-7 -9 -11 -17 -9 -20 3 -2 10 5 17 15 14 24 10 26 -8 5z"/>
<path d="M3981 1853 c7 -12 15 -20 18 -17 3 2 -3 12 -13 22 -17 16 -18 16 -5
-5z"/>
<path d="M4210 1858 c0 -9 15 -12 52 -10 50 3 55 1 93 -37 l39 -41 81 0 c68 0
82 3 92 19 7 11 23 21 35 24 22 4 22 4 2 6 -12 0 -27 -6 -34 -14 -9 -11 -33
-15 -89 -15 -77 0 -77 0 -116 40 -37 38 -43 40 -97 40 -40 0 -58 -4 -58 -12z"/>
<path d="M2165 1849 c-4 -6 -5 -12 -2 -15 2 -3 7 2 10 11 7 17 1 20 -8 4z"/>
<path d="M1485 1841 c-6 -5 -19 -11 -30 -14 -19 -4 -19 -5 1 -6 12 0 27 6 34
14 14 16 10 20 -5 6z"/>
<path d="M2441 1833 c12 -20 12 -26 0 -45 -13 -21 -13 -22 2 -9 10 7 17 21 17
31 0 10 -7 24 -17 31 -15 13 -15 12 -2 -8z"/>
<path d="M2241 1825 c0 -12 -5 -26 -11 -33 -5 -7 -3 -6 6 2 9 7 14 22 11 32
-4 17 -5 17 -6 -1z"/>
<path d="M3796 1823 c-6 -14 -5 -15 5 -6 7 7 10 15 7 18 -3 3 -9 -2 -12 -12z"/>
<path d="M4139 1828 c7 -10 23 -17 35 -17 20 1 20 2 1 6 -11 3 -27 10 -35 17
-13 10 -13 9 -1 -6z"/>
<path d="M3355 1810 c-3 -6 1 -7 9 -4 18 7 21 14 7 14 -6 0 -13 -4 -16 -10z"/>
<path d="M3910 1815 c0 -19 23 -35 50 -35 20 0 54 -28 148 -123 67 -68 125
-120 130 -115 5 5 -47 63 -115 130 -68 67 -123 129 -123 137 -1 13 -2 13 -11
-1 -5 -10 -21 -18 -34 -18 -13 0 -29 8 -34 18 -6 9 -11 12 -11 7z"/>
<path d="M1959 1798 c7 -10 23 -17 35 -17 20 1 20 2 1 6 -11 3 -27 10 -35 17
-13 10 -13 9 -1 -6z"/>
<path d="M2069 1705 c-83 -86 -95 -103 -86 -117 9 -14 9 -23 -2 -40 -13 -21
-13 -22 3 -9 11 9 16 24 13 37 -3 19 16 42 92 117 60 59 92 98 86 103 -6 6
-47 -29 -106 -91z"/>
<path d="M1535 1790 c-3 -6 1 -7 9 -4 18 7 21 14 7 14 -6 0 -13 -4 -16 -10z"/>
<path d="M1580 1796 c0 -2 7 -7 16 -10 8 -3 12 -2 9 4 -6 10 -25 14 -25 6z"/>
<path d="M2918 1793 c7 -3 16 -2 19 1 4 3 -2 6 -13 5 -11 0 -14 -3 -6 -6z"/>
<path d="M2278 1687 l-98 -99 0 -84 c0 -75 2 -85 25 -108 14 -14 25 -21 25
-17 0 5 -7 14 -15 21 -11 9 -15 34 -15 98 l0 86 98 92 c60 57 93 95 87 101 -6
5 -48 -31 -107 -90z"/>
<path d="M3340 1776 c0 -8 4 -17 9 -20 5 -4 7 3 4 14 -6 23 -13 26 -13 6z"/>
<path d="M4641 1774 c0 -11 3 -14 6 -6 3 7 2 16 -1 19 -3 4 -6 -2 -5 -13z"/>
<path d="M1520 1756 c0 -8 4 -17 9 -20 5 -4 7 3 4 14 -6 23 -13 26 -13 6z"/>
<path d="M1610 1760 c0 -5 22 -10 48 -10 40 0 53 -5 75 -28 15 -16 24 -32 20
-37 -5 -4 2 -2 13 5 41 25 79 -13 54 -54 -12 -19 -12 -20 3 -7 10 7 17 21 17
31 0 22 -31 50 -56 50 -11 0 -33 14 -49 30 -24 25 -36 30 -77 30 -26 0 -48 -4
-48 -10z"/>
<path d="M2881 1754 c0 -12 7 -28 17 -35 15 -12 16 -12 6 1 -7 8 -14 24 -17
35 -4 19 -5 19 -6 -1z"/>
<path d="M3416 1752 c-4 -7 -17 -13 -29 -13 -20 -1 -19 -2 4 -8 14 -3 73 -49
132 -101 l107 -95 0 -196 c0 -191 0 -196 -23 -217 -13 -12 -34 -23 -48 -23
-20 -1 -21 -2 -4 -6 11 -3 24 -9 29 -13 4 -5 21 7 37 25 l29 33 0 203 0 204
-108 94 c-59 52 -110 101 -113 109 -4 11 -8 12 -13 4z"/>
<path d="M4242 1748 c-17 -17 -15 -43 5 -59 15 -13 15 -12 2 9 -11 18 -11 26
-1 42 14 23 12 26 -6 8z"/>
<path d="M3880 1746 c0 -2 7 -7 16 -10 8 -3 12 -2 9 4 -6 10 -25 14 -25 6z"/>
<path d="M4620 1740 c-9 -6 -10 -10 -3 -10 6 0 15 5 18 10 8 12 4 12 -15 0z"/>
<path d="M1595 1731 c-6 -5 -19 -11 -30 -14 -19 -4 -19 -5 1 -6 12 0 27 6 34
14 14 16 10 20 -5 6z"/>
<path d="M2495 1720 c-3 -6 1 -7 9 -4 18 7 21 14 7 14 -6 0 -13 -4 -16 -10z"/>
<path d="M2933 1713 c-9 -3 -13 -28 -13 -74 l0 -69 -107 -102 c-267 -254 -293
-282 -277 -297 13 -11 15 -11 12 1 -2 7 86 98 194 201 l196 187 4 80 c2 44 3
80 3 79 0 0 -6 -3 -12 -6z"/>
<path d="M3911 1704 c0 -11 3 -14 6 -6 3 7 2 16 -1 19 -3 4 -6 -2 -5 -13z"/>
<path d="M4304 1693 c-8 -13 -3 -23 27 -50 35 -32 40 -33 118 -33 47 0 81 4
81 10 0 6 -34 10 -82 10 -75 0 -84 2 -109 26 -15 15 -25 33 -22 40 7 19 0 18
-13 -3z"/>
<path d="M2481 1684 c0 -11 3 -14 6 -6 3 7 2 16 -1 19 -3 4 -6 -2 -5 -13z"/>
<path d="M3088 1683 c7 -3 16 -2 19 1 4 3 -2 6 -13 5 -11 0 -14 -3 -6 -6z"/>
<path d="M3839 1678 c7 -10 25 -18 39 -18 19 0 44 -17 84 -57 l58 -57 0 -401
0 -401 30 -29 c22 -21 28 -35 25 -54 -5 -26 -5 -26 6 2 8 19 18 27 37 28 l27
2 -25 4 c-14 3 -37 16 -52 31 l-28 26 0 401 0 402 -63 60 c-53 51 -68 60 -90
56 -15 -3 -35 1 -45 8 -15 13 -16 12 -3 -3z"/>
<path d="M3055 1669 c-4 -6 -5 -12 -2 -15 2 -3 7 2 10 11 7 17 1 20 -8 4z"/>
<path d="M2555 1661 c-6 -5 -19 -11 -30 -14 -19 -4 -19 -5 1 -6 12 0 27 6 34
14 14 16 10 20 -5 6z"/>
<path d="M4570 1663 c8 -3 22 -11 30 -17 13 -10 13 -9 1 7 -7 9 -21 17 -30 16
-13 0 -14 -1 -1 -6z"/>
<path d="M2429 1605 c-34 -33 -52 -58 -47 -63 8 -8 118 95 118 111 0 16 -18 3
-71 -48z"/>
<path d="M2682 1648 c-7 -7 -12 -24 -12 -38 0 -36 -234 -270 -271 -270 -47 0
-68 -53 -31 -81 15 -13 16 -12 4 3 -21 26 -11 62 17 66 13 2 27 0 32 -5 13
-13 276 249 266 264 -5 7 -7 22 -5 35 4 27 40 36 66 16 15 -12 16 -11 3 5 -16
20 -51 23 -69 5z"/>
<path d="M3131 1645 c0 -12 -5 -26 -11 -33 -5 -7 -3 -6 6 2 9 7 14 22 11 32
-4 17 -5 17 -6 -1z"/>
<path d="M1750 1641 c0 -6 4 -13 10 -16 6 -3 7 1 4 9 -7 18 -14 21 -14 7z"/>
<path d="M3078 1566 c3 -41 2 -42 -132 -176 l-136 -135 0 -59 c0 -42 -5 -65
-17 -79 -18 -19 -17 -19 5 -6 19 12 25 12 45 0 21 -13 22 -13 5 6 -13 13 -18
36 -18 74 l0 54 135 135 c130 130 135 136 135 176 0 24 -5 44 -12 47 -10 3
-12 -7 -10 -37z"/>
<path d="M2739 1583 c-13 -16 -12 -17 4 -4 9 7 17 15 17 17 0 8 -8 3 -21 -13z"/>
<path d="M3250 1519 l0 -81 -116 -112 c-64 -61 -127 -116 -141 -122 -25 -11
-25 -11 -4 -17 15 -3 31 4 54 26 18 18 76 74 130 126 l97 94 0 83 c0 49 -4 84
-10 84 -6 0 -10 -34 -10 -81z"/>
<path d="M3389 1563 c-13 -15 -12 -15 9 -2 19 12 25 12 45 0 20 -13 21 -13 8
2 -7 10 -21 17 -31 17 -10 0 -24 -7 -31 -17z"/>
<path d="M2320 1545 c-6 -8 -10 -22 -7 -32 4 -14 5 -14 6 4 0 12 9 27 19 32 9
6 12 11 6 11 -6 0 -17 -7 -24 -15z"/>
<path d="M4288 1548 c8 -9 12 -27 10 -40 -4 -27 -40 -36 -66 -16 -15 12 -16
11 -3 -4 16 -21 51 -24 69 -6 18 18 15 53 -5 69 -16 13 -17 12 -5 -3z"/>
<path d="M4418 1533 c7 -3 16 -2 19 1 4 3 -2 6 -13 5 -11 0 -14 -3 -6 -6z"/>
<path d="M3393 1497 c11 -9 17 -28 17 -55 0 -39 -5 -45 -129 -164 -108 -103
-127 -125 -115 -136 11 -10 14 -10 14 1 0 7 56 66 125 131 125 117 125 118
125 163 0 32 5 50 18 60 15 13 15 13 -5 3 -17 -8 -29 -8 -45 0 -21 10 -21 10
-5 -3z"/>
<path d="M4381 1494 c0 -12 7 -28 17 -35 15 -12 16 -12 6 1 -7 8 -14 24 -17
35 -4 19 -5 19 -6 -1z"/>
<path d="M2384 1489 c-3 -6 -19 -9 -35 -7 -15 3 -26 1 -23 -4 9 -13 51 -9 64
7 7 8 10 15 7 15 -3 0 -9 -5 -13 -11z"/>
<path d="M4140 1466 c0 -2 9 -6 20 -9 11 -3 18 -1 14 4 -5 9 -34 13 -34 5z"/>
<path d="M4433 1453 c-7 -2 -13 -15 -13 -27 0 -32 -94 -122 -124 -118 -12 2
-29 -5 -37 -14 -13 -16 -12 -16 9 -3 17 11 26 11 41 2 16 -10 26 -4 74 45 38
40 56 67 59 90 3 17 4 32 4 31 -1 0 -7 -3 -13 -6z"/>
<path d="M3745 1433 c11 -3 27 -10 35 -17 13 -10 13 -9 1 7 -7 9 -23 16 -35
16 -20 -1 -20 -2 -1 -6z"/>
<path d="M4191 1425 c0 -12 -5 -26 -11 -33 -5 -7 -3 -6 6 2 9 7 14 22 11 32
-4 17 -5 17 -6 -1z"/>
<path d="M2150 1395 c-7 -9 -11 -17 -9 -20 3 -2 10 5 17 15 14 24 10 26 -8 5z"/>
<path d="M3701 1394 c0 -11 3 -14 6 -6 3 7 2 16 -1 19 -3 4 -6 -2 -5 -13z"/>
<path d="M4110 1401 c0 -6 4 -13 10 -16 6 -3 7 1 4 9 -7 18 -14 21 -14 7z"/>
<path d="M3499 1373 c-13 -15 -12 -15 7 -3 26 16 52 8 64 -22 5 -15 9 -17 9
-7 1 19 -30 49 -51 49 -9 0 -22 -7 -29 -17z"/>
<path d="M4140 1125 c0 -197 3 -255 13 -255 9 0 11 56 9 255 -2 156 -6 255
-12 255 -6 0 -10 -97 -10 -255z"/>
<path d="M3723 1357 c15 -13 17 -35 17 -192 0 -157 -2 -179 -17 -192 -16 -13
-16 -13 5 -3 12 6 26 9 30 6 4 -2 7 83 7 189 0 106 -3 191 -7 189 -4 -3 -18 0
-30 6 -21 10 -21 10 -5 -3z"/>
<path d="M2140 1355 c0 -18 22 -35 45 -35 23 0 45 17 45 35 0 5 -5 2 -11 -7
-5 -10 -21 -18 -34 -18 -13 0 -29 8 -34 18 -6 9 -11 12 -11 7z"/>
<path d="M3494 1311 c3 -5 -19 -30 -49 -56 -36 -30 -55 -54 -55 -68 0 -12 -9
-28 -20 -35 -32 -20 -21 -83 14 -82 6 0 3 5 -6 11 -24 13 -23 56 0 68 14 7 25
6 43 -6 24 -16 24 -16 7 3 -28 32 -22 50 37 100 59 51 63 59 39 68 -8 3 -13 2
-10 -3z"/>
<path d="M2419 1263 c-13 -16 -12 -17 4 -4 9 7 17 15 17 17 0 8 -8 3 -21 -13z"/>
<path d="M2472 1178 c-7 -7 -11 -21 -11 -32 1 -21 1 -21 6 -1 3 11 10 26 15
33 13 15 6 16 -10 0z"/>
<path d="M3021 1155 c0 -12 -5 -26 -11 -33 -5 -7 -3 -6 6 2 9 7 14 22 11 32
-4 17 -5 17 -6 -1z"/>
<path d="M2940 1131 c0 -6 4 -13 10 -16 6 -3 7 1 4 9 -7 18 -14 21 -14 7z"/>
<path d="M2535 1121 c-6 -5 -19 -11 -30 -14 -19 -4 -19 -5 1 -6 12 0 27 6 34
14 14 16 10 20 -5 6z"/>
<path d="M3091 1114 c0 -11 3 -14 6 -6 3 7 2 16 -1 19 -3 4 -6 -2 -5 -13z"/>
<path d="M3165 1091 c-6 -5 -19 -11 -30 -14 -19 -4 -19 -5 1 -6 12 0 27 6 34
14 14 16 10 20 -5 6z"/>
<path d="M3416 1085 c-11 -8 -15 -15 -9 -15 6 0 16 7 23 15 16 19 11 19 -14 0z"/>
<path d="M2787 1049 c7 -7 15 -10 18 -7 3 3 -2 9 -12 12 -14 6 -15 5 -6 -5z"/>
<path d="M3527 1019 c7 -7 15 -10 18 -7 3 3 -2 9 -12 12 -14 6 -15 5 -6 -5z"/>
<path d="M3580 1020 c-9 -6 -10 -10 -3 -10 6 0 15 5 18 10 8 12 4 12 -15 0z"/>
<path d="M3701 934 c0 -11 3 -14 6 -6 3 7 2 16 -1 19 -3 4 -6 -2 -5 -13z"/>
<path d="M3738 893 c6 -2 18 -2 25 0 6 3 1 5 -13 5 -14 0 -19 -2 -12 -5z"/>
<path d="M4191 835 c0 -12 -5 -26 -11 -33 -5 -7 -3 -6 6 2 9 7 14 22 11 32 -4
17 -5 17 -6 -1z"/>
<path d="M3919 783 c-13 -16 -12 -17 4 -4 9 7 17 15 17 17 0 8 -8 3 -21 -13z"/>
<path d="M4087 619 c7 -7 15 -10 18 -7 3 3 -2 9 -12 12 -14 6 -15 5 -6 -5z"/>
<path d="M4140 620 c-9 -6 -10 -10 -3 -10 6 0 15 5 18 10 8 12 4 12 -15 0z"/>
</g>
</svg>
