<?xml version="1.0" standalone="no"?>
<!DOCTYPE svg PUBLIC "-//W3C//DTD SVG 20010904//EN"
 "http://www.w3.org/TR/2001/REC-SVG-20010904/DTD/svg10.dtd">
<svg version="1.0" xmlns="http://www.w3.org/2000/svg"
 width="539.000000pt" height="354.000000pt" viewBox="0 0 539.000000 354.000000"
 preserveAspectRatio="xMidYMid meet">

<g transform="translate(0.000000,354.000000) scale(0.100000,-0.100000)"
fill="#000000" stroke="none">
<path d="M3087 3519 c-79 -19 -181 -86 -233 -154 -44 -58 -17 -61 42 -5 90 85
215 128 297 101 20 -7 54 -31 77 -53 l41 -41 22 20 c45 41 87 56 147 50 94 -8
159 -51 190 -127 15 -36 20 -37 58 -5 92 77 254 83 414 15 118 -50 158 -94
178 -194 22 -111 62 -151 190 -187 185 -51 265 -139 311 -342 27 -118 49 -160
112 -216 146 -131 194 -186 235 -271 57 -116 90 -232 103 -364 13 -140 5 -213
-34 -301 -44 -100 -44 -194 2 -325 18 -52 37 -129 41 -170 l9 -75 -4 85 c-2
59 -13 115 -34 184 -42 134 -41 174 11 294 l42 97 0 145 c0 116 -5 164 -23
239 -53 215 -125 337 -271 456 -86 70 -115 117 -136 221 -30 145 -97 261 -187
323 -23 16 -89 43 -146 61 -124 38 -153 62 -170 138 -6 29 -11 59 -11 66 0 24
-58 94 -105 126 -26 18 -83 46 -128 62 -72 27 -95 31 -192 32 -113 1 -129 -3
-214 -55 -19 -11 -25 -11 -28 -1 -11 29 -54 69 -99 92 -39 20 -64 25 -124 25
-75 0 -81 -2 -145 -49 -9 -7 -24 0 -49 22 -36 31 -90 52 -137 52 -42 0 -121
-27 -173 -60 -26 -17 -50 -29 -52 -27 -8 8 64 57 113 76 103 40 173 36 249
-15 30 -21 41 -24 54 -15 92 68 254 54 342 -30 39 -37 43 -38 64 -24 98 64
319 57 472 -15 121 -56 173 -116 198 -226 19 -88 37 -105 140 -130 139 -34
232 -101 301 -216 30 -49 45 -91 88 -250 12 -46 25 -66 68 -105 183 -169 232
-234 286 -381 46 -124 62 -216 65 -357 3 -162 -4 -205 -48 -304 -44 -97 -45
-128 -6 -262 16 -57 30 -114 30 -126 0 -13 4 -23 10 -23 12 0 6 36 -26 156
-33 125 -31 149 17 252 51 106 63 186 56 362 -6 160 -39 288 -108 427 -52 104
-100 162 -235 283 -48 44 -51 49 -78 155 -64 249 -186 381 -402 435 -41 10
-81 24 -89 30 -8 6 -19 37 -26 68 -6 31 -19 73 -29 92 -44 86 -188 176 -328
206 -121 25 -277 14 -350 -25 -19 -10 -27 -8 -55 13 -98 75 -229 92 -327 44
-53 -26 -54 -26 -79 -9 -51 37 -121 47 -194 30z m-208 -157 c-19 -21 -36 -37
-37 -36 -6 4 52 74 62 74 4 0 -7 -17 -25 -38z"/>
<path d="M2553 3370 c-59 -12 -99 -35 -160 -93 l-53 -50 -52 24 c-44 20 -69
24 -153 24 -92 0 -104 -2 -154 -30 -67 -37 -112 -89 -146 -169 l-27 -63 -61
-2 c-121 -3 -273 -104 -332 -222 -18 -35 -32 -86 -41 -149 -14 -101 -11 -95
-94 -160 l-33 -25 26 -12 c22 -10 31 -8 75 23 55 39 66 65 77 184 8 83 41 153
102 212 59 58 152 108 202 108 20 0 53 3 73 6 35 6 38 10 60 71 54 152 187
230 342 202 33 -6 77 -19 98 -30 l39 -20 57 58 c77 78 117 97 217 99 l80 2
-70 -7 c-105 -11 -189 -62 -256 -159 l-16 -22 -59 27 c-79 37 -207 40 -269 6
-69 -37 -110 -92 -144 -193 -20 -60 -30 -66 -121 -69 -92 -3 -226 -94 -269
-184 -11 -23 -25 -80 -30 -127 -16 -130 -25 -152 -77 -189 -46 -33 -50 -47
-22 -64 11 -8 26 -2 58 24 55 45 69 73 81 172 6 45 13 96 15 114 7 49 63 124
126 167 51 35 66 40 151 49 l94 10 32 93 c52 148 125 201 261 192 42 -3 88
-15 123 -31 l57 -26 29 42 c74 107 174 164 273 155 29 -3 44 -2 36 3 -10 7 -8
9 7 9 l20 1 -20 8 c-35 14 -109 19 -152 11z"/>
<path d="M2750 3320 c-9 -6 -10 -10 -3 -10 6 0 15 5 18 10 8 12 4 12 -15 0z"/>
<path d="M3438 2970 c-2 -143 0 -260 4 -260 4 0 9 117 10 260 2 143 0 260 -4
260 -4 0 -9 -117 -10 -260z"/>
<path d="M3849 3184 c2 -25 -2 -57 -9 -69 -15 -28 -7 -55 15 -55 21 0 31 29
17 51 -7 10 -12 41 -12 69 0 27 -3 50 -8 50 -4 0 -5 -21 -3 -46z"/>
<path d="M2930 3145 c-9 -11 -9 -18 3 -35 14 -20 14 -20 32 0 15 16 15 22 5
35 -16 19 -24 19 -40 0z"/>
<path d="M3694 3070 c-5 -5 -43 -10 -84 -12 l-75 -3 -3 -192 -2 -193 -163 -2
-162 -3 -1 -105 -1 -105 6 100 6 100 163 3 162 2 0 195 0 195 72 0 c53 0 76
-4 90 -17 17 -15 20 -15 35 -1 9 9 13 24 10 32 -7 18 -38 21 -53 6z"/>
<path d="M2417 3043 c-10 -9 -8 -41 2 -47 16 -10 41 5 41 24 0 10 -7 21 -16
24 -19 7 -19 7 -27 -1z"/>
<path d="M4130 3040 c-12 -8 -13 -13 -2 -30 6 -11 12 -49 12 -85 l0 -65 -247
-3 -248 -2 253 -3 252 -2 0 63 c0 41 5 70 16 85 12 18 13 26 4 37 -14 17 -20
18 -40 5z"/>
<path d="M2604 2835 c0 -104 2 -146 3 -92 2 54 2 139 0 190 -1 51 -3 7 -3 -98z"/>
<path d="M3980 2950 c-8 -5 -95 -10 -192 -10 -97 0 -183 -3 -192 -6 -14 -5
-16 -29 -16 -165 l0 -159 -144 0 c-79 0 -151 -3 -160 -6 -13 -5 -16 -22 -14
-93 l2 -86 5 85 6 85 157 3 158 3 2 162 3 162 184 3 c162 2 186 0 203 -15 17
-15 20 -15 35 -1 30 30 -1 61 -37 38z"/>
<path d="M2717 2933 c-3 -5 32 -7 76 -5 147 5 164 8 45 10 -64 1 -119 -1 -121
-5z"/>
<path d="M2057 2796 c-9 -23 21 -42 44 -28 10 7 37 12 58 12 l40 0 4 -62 3
-63 0 65 -1 65 -47 3 c-27 2 -48 7 -48 13 0 15 -47 10 -53 -5z"/>
<path d="M3890 2800 c0 -6 -32 -11 -72 -12 l-73 -2 70 -3 c38 -2 75 -9 82 -15
18 -15 43 -2 43 22 0 15 -7 20 -25 20 -14 0 -25 -4 -25 -10z"/>
<path d="M4520 2792 c0 -10 5 -23 11 -29 6 -6 9 -38 7 -77 -1 -36 0 -66 5 -66
4 0 7 31 7 69 0 39 5 73 10 76 6 3 10 15 10 26 0 14 -7 19 -25 19 -17 0 -25
-5 -25 -18z"/>
<path d="M3150 2699 c0 -5 5 -7 10 -4 6 3 10 8 10 11 0 2 -4 4 -10 4 -5 0 -10
-5 -10 -11z"/>
<path d="M4220 2690 c0 -24 27 -37 43 -21 6 6 24 11 39 11 l28 0 3 -357 2
-358 3 363 2 362 -29 0 c-17 0 -33 5 -36 10 -3 6 -17 10 -31 10 -17 0 -24 -5
-24 -20z"/>
<path d="M3818 2550 c-2 -77 0 -140 5 -140 4 0 7 61 7 135 l0 134 78 4 77 3
-82 2 -82 2 -3 -140z"/>
<path d="M1843 2645 c-3 -9 -3 -19 1 -22 3 -4 6 1 6 10 0 8 8 18 18 20 16 4
16 5 -1 6 -10 0 -20 -6 -24 -14z"/>
<path d="M2370 2605 c0 -22 4 -26 23 -23 14 2 22 10 22 23 0 13 -8 21 -22 23
-19 3 -23 -1 -23 -23z"/>
<path d="M4410 2272 c0 -265 -3 -351 -12 -361 -11 -10 -10 -11 4 -6 16 6 18
36 20 361 2 195 0 354 -4 354 -5 0 -8 -157 -8 -348z"/>
<path d="M2845 2603 c121 -7 243 -7 238 0 -2 4 -68 6 -146 5 -78 -1 -119 -3
-92 -5z"/>
<path d="M3966 2575 c-21 -22 -16 -39 12 -43 28 -4 40 24 20 44 -13 14 -17 14
-32 -1z"/>
<path d="M2835 2553 c96 -7 203 -7 198 0 -2 4 -57 6 -121 5 -64 -1 -99 -3 -77
-5z"/>
<path d="M4147 2554 c-4 -4 -7 -76 -7 -161 l0 -153 -50 0 c-29 0 -50 5 -50 11
0 21 -45 4 -48 -18 -3 -19 1 -23 22 -23 14 0 26 4 26 10 0 5 25 10 56 12 l56
3 -1 141 c-1 77 1 148 5 157 4 12 18 17 45 17 l40 0 -3 -265 c-2 -145 0 -261
5 -256 4 4 6 124 5 267 l-3 259 -45 3 c-25 2 -49 0 -53 -4z"/>
<path d="M3483 2533 c-90 -2 -163 -7 -163 -11 0 -4 74 -6 165 -4 96 2 165 7
165 12 0 6 -1 9 -2 8 -2 -1 -76 -4 -165 -5z"/>
<path d="M1968 2200 l3 -330 64 0 64 0 3 161 3 161 28 24 c37 31 81 31 112 -1
24 -24 25 -28 25 -185 l0 -160 71 0 71 0 -4 198 c-3 188 -4 199 -26 230 -32
43 -71 62 -132 62 -52 0 -96 -16 -119 -44 -8 -9 -17 -16 -22 -16 -5 0 -9 52
-9 115 l0 115 -67 0 -68 0 3 -330z"/>
<path d="M2540 2470 l0 -60 70 0 70 0 0 60 0 60 -70 0 -70 0 0 -60z"/>
<path d="M137 2503 c-4 -3 -7 -147 -7 -320 l0 -313 68 0 67 0 -3 201 c-2 123
1 200 7 197 5 -1 45 -58 90 -125 44 -68 84 -123 88 -123 5 0 43 54 86 120 43
66 82 122 88 125 5 4 9 -71 9 -194 l0 -201 70 0 70 0 -2 318 -3 317 -75 0 -74
0 -79 -125 c-43 -69 -84 -126 -91 -128 -8 -2 -17 5 -20 15 -4 9 -39 68 -78
130 l-71 113 -67 0 c-37 0 -70 -3 -73 -7z"/>
<path d="M3730 2480 c-13 -8 -12 -10 3 -10 9 0 17 5 17 10 0 12 -1 12 -20 0z"/>
<path d="M3380 2450 c0 -16 2 -30 4 -30 2 0 6 14 8 30 3 17 1 30 -4 30 -4 0
-8 -13 -8 -30z"/>
<path d="M3433 2473 c9 -2 23 -2 30 0 6 3 -1 5 -18 5 -16 0 -22 -2 -12 -5z"/>
<path d="M3321 2394 c0 -11 3 -14 6 -6 3 7 2 16 -1 19 -3 4 -6 -2 -5 -13z"/>
<path d="M981 2344 c-30 -8 -57 -16 -59 -19 -2 -2 4 -27 13 -55 14 -41 20 -50
34 -44 9 3 51 9 93 11 72 5 78 4 102 -20 14 -14 26 -35 26 -47 0 -19 -4 -20
-37 -13 -53 11 -133 8 -176 -6 -20 -7 -50 -28 -67 -47 -25 -29 -30 -43 -30
-87 0 -59 23 -106 67 -134 42 -28 161 -25 202 5 37 27 41 27 41 2 0 -18 7 -20
68 -20 l67 0 -5 187 c-5 198 -8 209 -57 255 -51 48 -172 62 -282 32z m193
-270 c10 -4 16 -18 16 -39 0 -63 -96 -107 -148 -68 -64 47 -26 113 64 113 29
0 59 -3 68 -6z"/>
<path d="M1576 2345 c-79 -28 -143 -116 -153 -209 -15 -143 86 -262 230 -273
80 -7 134 8 182 50 l39 33 -37 40 -36 39 -40 -22 c-71 -40 -155 -23 -186 37
-22 43 -20 122 6 154 47 59 117 69 173 25 33 -26 44 -22 85 29 l32 41 -35 26
c-19 14 -49 30 -67 35 -48 14 -147 11 -193 -5z"/>
<path d="M3004 2341 c-18 -11 -35 -24 -38 -30 -12 -19 -26 -12 -26 14 0 24 -2
25 -65 25 l-65 0 0 -240 0 -240 65 0 65 0 0 133 c0 72 5 149 10 169 19 68 85
89 137 44 l28 -24 3 -161 4 -161 64 0 64 0 0 185 c0 201 -6 230 -54 275 -38
34 -146 41 -192 11z"/>
<path d="M3505 2349 c-45 -13 -97 -61 -125 -115 -20 -40 -25 -64 -25 -124 0
-85 23 -141 78 -192 56 -50 172 -72 260 -47 36 10 107 62 107 79 0 4 -16 20
-36 35 l-36 28 -45 -23 c-63 -31 -127 -24 -165 19 -15 17 -28 36 -28 41 0 6
69 11 168 12 l167 3 -1 55 c-3 149 -91 240 -229 239 -33 0 -73 -5 -90 -10z
m158 -130 c15 -16 27 -38 27 -49 0 -19 -7 -20 -100 -20 -83 0 -100 3 -100 15
0 26 32 67 65 81 40 18 74 10 108 -27z"/>
<path d="M2540 2110 l0 -240 70 0 70 0 0 240 0 240 -70 0 -70 0 0 -240z"/>
<path d="M3886 2335 c4 -8 8 -15 10 -15 2 0 4 7 4 15 0 8 -4 15 -10 15 -5 0
-7 -7 -4 -15z"/>
<path d="M4995 2114 c-12 -12 -13 -19 -4 -30 15 -18 33 -18 49 1 10 12 10 18
0 30 -16 19 -25 19 -45 -1z"/>
<path d="M4033 1853 c86 -2 228 -2 315 0 86 1 15 3 -158 3 -173 0 -244 -2
-157 -3z"/>
<path d="M2730 1750 l0 -60 70 0 70 0 0 60 0 60 -70 0 -70 0 0 -60z"/>
<path d="M3963 1793 c81 -2 213 -2 295 0 81 1 14 3 -148 3 -162 0 -229 -2
-147 -3z"/>
<path d="M4412 1598 c-1 -109 1 -198 6 -198 4 0 6 60 4 132 -4 242 -8 265 -10
66z"/>
<path d="M4947 1783 c-11 -10 -8 -33 5 -47 16 -17 38 3 38 33 0 20 -28 30 -43
14z"/>
<path d="M130 1465 l0 -315 230 0 230 0 0 60 0 59 -157 3 -158 3 -3 253 -2
252 -70 0 -70 0 0 -315z"/>
<path d="M4328 1510 l3 -230 239 0 239 0 3 85 c2 47 0 85 -4 85 -5 0 -8 -36
-8 -80 l0 -80 -230 0 -230 0 0 225 c0 124 -3 225 -7 225 -5 0 -7 -103 -5 -230z"/>
<path d="M4208 1673 l32 -4 0 -245 0 -244 240 0 240 0 0 -85 0 -85 94 0 c53 0
98 -4 101 -10 17 -27 58 -3 48 28 -6 14 -39 16 -48 2 -3 -5 -46 -10 -96 -10
l-89 0 0 85 0 85 -240 0 -240 0 0 245 0 245 -37 -2 c-37 -1 -37 -1 -5 -5z"/>
<path d="M4960 1660 c0 -6 -48 -10 -124 -10 l-125 0 -3 -125 c-2 -69 0 -125 5
-125 4 0 7 54 7 120 l0 120 125 0 c104 0 125 2 125 15 0 8 -2 15 -5 15 -3 0
-5 -4 -5 -10z"/>
<path d="M850 1641 c-79 -17 -160 -87 -179 -158 -14 -50 -14 -136 0 -184 41
-135 224 -202 359 -131 77 40 83 55 39 96 l-35 34 -40 -24 c-80 -49 -194 -13
-194 60 0 14 22 16 165 16 l165 0 0 50 c0 56 -22 119 -56 166 -42 56 -146 91
-224 75z m115 -137 c14 -15 25 -30 25 -35 0 -4 3 -14 6 -23 5 -14 -7 -16 -101
-16 -94 0 -106 2 -101 16 3 9 6 19 6 23 0 5 11 20 25 35 19 21 33 26 70 26 37
0 51 -5 70 -26z"/>
<path d="M2014 1639 c-18 -5 -46 -25 -63 -44 -32 -37 -44 -33 -39 13 l3 27
-67 0 c-38 0 -68 -3 -68 -7 0 -5 0 -114 0 -243 l0 -236 65 3 65 3 3 120 c4
161 28 207 120 222 l38 6 -3 70 c-2 39 -7 71 -13 73 -5 1 -24 -2 -41 -7z"/>
<path d="M2387 1635 c-22 -7 -49 -23 -61 -34 -30 -28 -36 -26 -36 9 l0 30 -65
0 -65 0 0 -245 0 -245 64 0 65 0 3 161 3 161 28 24 c37 31 81 31 112 -1 14
-13 25 -32 25 -42 1 -10 2 -81 3 -158 l2 -140 68 -3 67 -3 0 186 c0 199 -6
231 -51 272 -21 19 -87 44 -114 43 -5 -1 -27 -7 -48 -15z"/>
<path d="M3237 1640 c-16 -5 -43 -20 -62 -34 l-34 -26 -3 27 c-3 27 -5 28 -70
31 l-68 3 0 -246 0 -245 70 0 70 0 0 160 c0 157 1 161 25 185 33 34 83 34 116
-1 23 -24 24 -32 27 -185 l3 -160 67 3 67 3 0 180 c0 204 -11 249 -69 284 -38
23 -101 33 -139 21z"/>
<path d="M3715 1641 c-109 -28 -165 -104 -165 -226 0 -87 27 -145 89 -188 42
-29 53 -32 122 -32 72 0 80 2 118 33 l41 33 0 -31 c0 -104 -103 -146 -241
-100 -34 12 -63 20 -64 18 -14 -16 -44 -91 -40 -98 23 -37 259 -59 338 -31 55
19 103 65 124 119 15 40 18 79 18 272 l0 225 -67 3 -68 3 0 -30 0 -30 -47 29
c-52 31 -111 43 -158 31z m172 -143 c35 -35 41 -102 14 -145 -38 -60 -138 -65
-188 -10 -46 50 -35 133 21 168 44 28 118 21 153 -13z"/>
<path d="M1311 1624 c-25 -8 -49 -18 -53 -22 -4 -4 -1 -29 8 -55 12 -36 20
-46 33 -43 118 38 211 17 223 -49 3 -19 -2 -19 -97 -17 -81 2 -107 -1 -135
-15 -107 -55 -107 -207 0 -265 49 -27 147 -21 191 11 30 22 44 21 44 -2 0 -8
25 -13 69 -15 l68 -3 -3 178 c-4 172 -5 180 -31 224 -37 63 -98 89 -200 88
-40 -1 -93 -7 -117 -15z m200 -274 c27 -15 24 -47 -10 -81 -53 -53 -161 -34
-161 28 0 41 33 63 96 63 30 0 64 -5 75 -10z"/>
<path d="M2730 1395 l0 -245 70 0 70 0 -2 243 -3 242 -67 3 -68 3 0 -246z"/>
<path d="M4912 1458 c-8 -8 -9 -15 -1 -25 14 -17 45 -17 51 0 12 32 -24 51
-50 25z"/>
<path d="M4171 1114 c0 -11 3 -14 6 -6 3 7 2 16 -1 19 -3 4 -6 -2 -5 -13z"/>
<path d="M1097 1073 c-15 -7 -27 -18 -27 -22 0 -13 84 -65 155 -96 90 -40 169
-54 401 -70 126 -9 227 -21 254 -30 62 -22 128 -65 270 -175 179 -138 276
-194 435 -248 132 -45 196 -56 335 -56 141 0 254 20 335 61 l49 25 16 -22 c86
-126 196 -191 363 -216 167 -24 186 -31 297 -104 145 -95 194 -113 295 -108
72 4 87 8 153 47 41 23 92 46 115 51 37 7 38 8 11 9 -18 1 -65 -17 -117 -43
-108 -56 -157 -64 -245 -42 -65 16 -92 31 -254 146 -59 42 -78 48 -247 79
-178 34 -294 114 -338 231 -9 25 -17 46 -19 48 -1 2 -30 -13 -65 -32 -91 -49
-199 -71 -339 -70 -255 2 -466 88 -735 298 -237 186 -294 210 -525 220 -269
13 -350 29 -476 96 -66 35 -73 36 -97 23z"/>
<path d="M1405 1031 l-60 -6 50 -13 c28 -6 111 -17 185 -22 246 -19 299 -28
366 -59 65 -31 179 -110 274 -191 165 -141 375 -244 574 -279 168 -30 378 3
496 79 26 17 50 30 53 30 3 0 11 -18 17 -39 16 -59 69 -132 123 -168 68 -46
140 -70 263 -88 120 -18 165 -36 270 -113 118 -85 147 -97 244 -97 79 0 89 2
140 34 30 18 70 39 90 47 19 7 27 13 18 13 -9 1 -59 -20 -110 -45 -84 -41 -98
-45 -143 -39 -70 9 -142 44 -233 113 -99 77 -144 99 -228 112 -250 40 -350
109 -389 271 -9 35 -18 69 -20 76 -3 8 -17 5 -46 -10 -30 -16 -43 -19 -46 -9
-6 15 -35 16 -50 1 -6 -6 -30 -10 -52 -7 -23 2 -41 0 -41 -4 0 -4 21 -8 47
-10 65 -4 66 -23 1 -52 -167 -76 -432 -53 -655 57 -122 61 -161 86 -298 197
-143 116 -227 171 -304 202 -51 20 -74 22 -266 24 -115 1 -237 -1 -270 -5z"/>
<path d="M2390 975 l0 -55 -34 0 c-19 0 -38 5 -41 10 -3 6 -15 10 -26 10 -14
0 -19 -7 -19 -25 0 -18 5 -25 19 -25 11 0 23 5 26 10 3 6 24 10 46 10 l39 0 0
60 c0 33 -2 60 -5 60 -3 0 -5 -25 -5 -55z"/>
<path d="M2598 955 l4 -75 94 0 94 0 -2 78 -2 77 -3 -72 -4 -73 -84 0 -85 0 0
58 c0 32 5 63 12 70 9 9 8 12 -7 12 -18 0 -20 -6 -17 -75z"/>
<path d="M3142 1010 c-7 -11 -8 -20 -3 -20 9 0 24 30 18 36 -1 2 -8 -6 -15
-16z"/>
<path d="M3200 975 l0 -55 -65 0 -65 0 0 -150 0 -150 -39 0 c-22 0 -43 5 -46
10 -9 14 -42 12 -48 -2 -10 -31 31 -55 48 -28 3 5 26 10 51 10 l44 0 0 150 0
150 65 0 65 0 0 60 c0 33 -2 60 -5 60 -3 0 -5 -25 -5 -55z"/>
<path d="M3260 945 l0 -85 -55 0 c-46 0 -55 -3 -54 -17 0 -11 3 -13 6 -5 3 7
25 12 59 12 l54 0 0 90 c0 50 -2 90 -5 90 -3 0 -5 -38 -5 -85z"/>
<path d="M3382 973 l-2 -63 108 2 107 2 -102 3 -102 4 -4 57 -3 57 -2 -62z"/>
<path d="M4110 1000 c0 -5 5 -10 11 -10 5 0 7 5 4 10 -3 6 -8 10 -11 10 -2 0
-4 -4 -4 -10z"/>
<path d="M2977 993 c-4 -3 -7 -62 -7 -129 0 -71 -4 -125 -10 -129 -16 -10 -12
-42 6 -49 10 -4 22 1 30 11 10 15 10 21 -2 34 -12 14 -15 42 -12 143 2 69 3
126 2 126 0 0 -4 -3 -7 -7z"/>
<path d="M4495 845 c0 -85 3 -155 8 -155 4 0 7 70 7 155 0 85 -3 155 -7 155
-5 0 -8 -70 -8 -155z"/>
<path d="M5342 965 c0 -16 2 -22 5 -12 2 9 2 23 0 30 -3 6 -5 -1 -5 -18z"/>
<path d="M3440 969 c0 -5 9 -9 20 -9 11 0 20 2 20 4 0 2 -9 6 -20 9 -11 3 -20
1 -20 -4z"/>
<path d="M5333 870 c0 -25 2 -35 4 -22 2 12 2 32 0 45 -2 12 -4 2 -4 -23z"/>
<path d="M3742 773 c-1 -62 1 -113 6 -113 4 0 6 35 4 77 -5 137 -9 151 -10 36z"/>
<path d="M3812 808 l-2 -78 55 0 c54 0 55 0 55 30 0 17 5 39 12 49 14 22 4 51
-17 51 -21 0 -31 -29 -17 -51 7 -10 12 -30 12 -44 0 -23 -4 -25 -45 -25 l-44
0 -4 73 -3 72 -2 -77z"/>
<path d="M4621 858 c-1 -16 10 -18 104 -18 l105 0 0 -38 c0 -21 -5 -43 -11
-49 -16 -16 -4 -43 20 -43 25 0 33 23 16 47 -8 10 -15 35 -15 56 l0 37 -104 0
c-74 0 -106 4 -109 13 -3 7 -6 5 -6 -5z"/>
<path d="M5272 840 c0 -14 2 -19 5 -12 2 6 2 18 0 25 -3 6 -5 1 -5 -13z"/>
<path d="M3322 820 c4 -12 35 -16 176 -20 95 -3 172 -2 172 3 0 4 -73 7 -163
7 -117 0 -167 4 -176 13 -11 10 -13 9 -9 -3z"/>
<path d="M2760 785 c0 -18 5 -25 19 -25 11 0 23 5 26 10 3 6 31 10 61 10 45 0
54 3 53 18 0 10 -3 12 -6 5 -6 -16 -99 -18 -108 -3 -3 6 -15 10 -26 10 -14 0
-19 -7 -19 -25z"/>
<path d="M5321 794 c0 -11 3 -14 6 -6 3 7 2 16 -1 19 -3 4 -6 -2 -5 -13z"/>
<path d="M5204 688 l-19 -23 23 19 c12 11 22 21 22 23 0 8 -8 2 -26 -19z"/>
<path d="M4302 588 l-2 -108 168 2 167 2 -162 3 -162 3 -4 103 -3 102 -2 -107z"/>
<path d="M3494 525 c-7 -17 2 -45 14 -45 4 0 17 6 27 14 16 12 17 16 6 30 -17
20 -40 21 -47 1z"/>
<path d="M3655 520 c-3 -5 -1 -10 4 -10 6 0 11 5 11 10 0 6 -2 10 -4 10 -3 0
-8 -4 -11 -10z"/>
<path d="M3950 488 c0 -4 18 -8 40 -8 l40 0 0 -58 c0 -32 -5 -63 -11 -69 -16
-16 -3 -43 21 -43 14 0 20 7 20 23 0 13 -4 27 -9 33 -6 5 -11 34 -13 64 l-3
55 -42 6 c-24 3 -43 2 -43 -3z"/>
<path d="M4642 424 c-1 -33 -7 -65 -13 -71 -16 -16 -4 -43 20 -43 25 0 33 23
16 47 -8 11 -16 44 -18 74 l-3 54 -2 -61z"/>
<path d="M4573 163 c26 -2 67 -2 90 0 23 2 2 3 -48 3 -49 0 -68 -1 -42 -3z"/>
<path d="M4748 163 c7 -3 16 -2 19 1 4 3 -2 6 -13 5 -11 0 -14 -3 -6 -6z"/>
<path d="M4678 113 c7 -3 16 -2 19 1 4 3 -2 6 -13 5 -11 0 -14 -3 -6 -6z"/>
</g>
</svg>
